<?xml version="1.0" standalone="no"?>
<!DOCTYPE svg PUBLIC "-//W3C//DTD SVG 20010904//EN"
 "http://www.w3.org/TR/2001/REC-SVG-20010904/DTD/svg10.dtd">
<svg version="1.0" xmlns="http://www.w3.org/2000/svg"
 width="512.000000pt" height="512.000000pt" viewBox="0 0 512.000000 512.000000"
 preserveAspectRatio="xMidYMid meet">
<metadata>
Created by potrace 1.11, written by Peter Selinger 2001-2013
</metadata>
<g transform="translate(0.000000,512.000000) scale(0.100000,-0.100000)"
fill="#000000" stroke="none">
<path d="M1050 4097 c-3 -2 -44 -7 -91 -11 -48 -3 -99 -10 -113 -16 -14 -5
-26 -7 -26 -5 0 12 -122 -42 -181 -80 -91 -59 -163 -162 -184 -267 -4 -18 -9
-197 -10 -398 -2 -240 -7 -381 -15 -409 -13 -48 -46 -106 -76 -133 -26 -23
-121 -66 -164 -73 -70 -13 -136 -21 -163 -20 l-27 2 0 -134 c0 -73 3 -133 8
-134 4 0 36 -3 72 -5 136 -10 240 -52 299 -120 57 -64 62 -104 65 -521 4 -409
5 -424 61 -519 85 -145 264 -233 500 -246 l50 -3 3 131 c2 101 0 131 -10 131
-43 1 -128 14 -152 23 -69 26 -116 86 -130 165 -3 17 -6 181 -6 366 -1 377 -8
438 -61 521 -57 88 -154 152 -282 184 -77 19 -78 37 -3 48 60 9 172 65 226
113 25 22 56 62 69 88 46 92 49 125 51 500 1 396 6 433 64 491 34 34 103 59
184 67 23 3 45 7 48 9 6 7 0 261 -6 255z"/>
<path d="M4034 3963 l1 -128 36 -1 c135 -4 216 -56 249 -159 10 -29 14 -137
15 -400 2 -234 6 -377 14 -409 37 -155 158 -255 364 -300 44 -10 32 -23 -40
-42 -172 -45 -280 -137 -320 -274 -14 -46 -17 -115 -18 -415 -2 -382 -6 -423
-51 -481 -29 -40 -97 -73 -161 -80 -99 -10 -91 3 -89 -141 l1 -128 40 3 c304
21 481 125 548 322 25 74 26 100 27 467 1 384 6 422 58 491 53 70 180 121 310
125 56 2 72 5 73 17 3 42 4 218 1 235 -3 17 -12 21 -65 23 -81 4 -192 29 -236
54 -47 26 -84 66 -113 120 -23 42 -23 50 -28 448 -6 444 -6 445 -71 550 -81
132 -269 222 -476 229 l-70 2 1 -128z"/>
<path d="M2018 3435 c-2 -2 -32 -5 -68 -8 -146 -11 -274 -69 -367 -163 -35
-36 -63 -69 -63 -75 0 -6 -8 -23 -19 -37 -24 -35 -57 -148 -69 -237 -5 -38 -9
-358 -9 -710 l0 -640 171 0 171 0 5 665 c5 654 5 666 26 711 49 104 123 147
264 153 158 7 267 -67 300 -205 9 -36 13 -231 14 -687 l1 -636 150 -1 c83 0
160 1 172 3 l22 4 0 637 c0 686 1 693 54 772 27 40 87 81 141 97 64 18 203 9
259 -18 62 -29 110 -87 132 -158 17 -52 18 -109 19 -692 0 -349 3 -637 7 -640
4 -3 81 -5 171 -5 l163 0 2 638 c2 392 -1 668 -8 715 -23 176 -93 314 -199
393 -119 89 -248 124 -457 122 -122 -1 -250 -28 -313 -65 -47 -29 -108 -87
-127 -121 l-14 -29 -28 44 c-75 116 -193 164 -420 172 -44 2 -82 2 -83 1z"/>
</g>
</svg>
